<?xml version="1.0" encoding="UTF-8" standalone="no"?>
<!-- Created with Inkscape (http://www.inkscape.org/) -->

<svg
   xmlns:dc="http://purl.org/dc/elements/1.1/"
   xmlns:cc="http://creativecommons.org/ns#"
   xmlns:rdf="http://www.w3.org/1999/02/22-rdf-syntax-ns#"
   xmlns:svg="http://www.w3.org/2000/svg"
   xmlns="http://www.w3.org/2000/svg"
   xmlns:sodipodi="http://sodipodi.sourceforge.net/DTD/sodipodi-0.dtd"
   xmlns:inkscape="http://www.inkscape.org/namespaces/inkscape"
   width="40mm"
   height="13.496777mm"
   viewBox="0 0 141.73228 47.823225"
   id="svg2"
   version="1.1"
   inkscape:version="0.91 r13725"
   sodipodi:docname="dygma-logo.svg">
  <defs
     id="defs4" />
  <sodipodi:namedview
     id="base"
     pagecolor="#ffffff"
     bordercolor="#666666"
     borderopacity="1.0"
     inkscape:pageopacity="0.0"
     inkscape:pageshadow="2"
     inkscape:zoom="63.356767"
     inkscape:cx="141.07067"
     inkscape:cy="36.136814"
     inkscape:document-units="px"
     inkscape:current-layer="layer2"
     showgrid="false"
     fit-margin-top="0"
     fit-margin-left="0"
     fit-margin-right="0"
     fit-margin-bottom="0"
     inkscape:window-width="2512"
     inkscape:window-height="1573"
     inkscape:window-x="48"
     inkscape:window-y="27"
     inkscape:window-maximized="1"
     showguides="false" />
  <metadata
     id="metadata7">
    <rdf:RDF>
      <cc:Work
         rdf:about="">
        <dc:format>image/svg+xml</dc:format>
        <dc:type
           rdf:resource="http://purl.org/dc/dcmitype/StillImage" />
        <dc:title></dc:title>
      </cc:Work>
    </rdf:RDF>
  </metadata>
  <g
     inkscape:label="Layer 1"
     inkscape:groupmode="layer"
     id="layer1"
     transform="translate(-14.336379,-869.18182)" />
  <g
     inkscape:groupmode="layer"
     id="layer2"
     inkscape:label="SilkS">
    <g
       id="g5649">
      <path
         id="path5532"
         d="M 14.715523,38.766253 C 10.344101,33.784921 6.6038488,29.458566 6.4038545,29.152133 6.0107776,28.549861 2.2852398,16.410224 2.396556,16.094383 c 0.034381,-0.09755 0.3092615,0.226457 0.6108467,0.720012 1.7034051,2.787688 3.9881782,5.637217 6.3426519,7.910431 1.7347464,1.674881 13.2019864,11.124766 13.4996704,11.124766 0.120332,0 2.122491,-1.568897 4.449246,-3.486439 2.326755,-1.917543 4.300657,-3.510719 4.386454,-3.540395 0.266001,-0.09201 0.01638,0.978267 -0.795064,3.408799 -1.209933,3.624169 -2.899304,7.4322 -4.698491,10.590913 -1.117689,1.962251 -3.148276,5.000751 -3.341933,5.000751 -0.102505,0 -3.762993,-4.075636 -8.134414,-9.056968 z"
         style="fill:#000000;fill-opacity:1;stroke:none;stroke-width:0.18782163;stroke-opacity:1"
         inkscape:connector-curvature="0" />
      <path
         id="path5530"
         d="m 28.700359,41.120635 c 0,-0.05418 0.439961,-0.996563 0.977691,-2.094196 1.178194,-2.404976 2.019813,-4.436479 2.891795,-6.980235 0.916871,-2.674704 1.256627,-4.015768 3.174249,-12.52917 1.357694,-6.027564 1.660078,-7.560856 1.516781,-7.691123 C 37.16244,11.736425 34.541051,10.728909 31.43557,9.5869871 28.330086,8.4450654 25.707136,7.4600236 25.606791,7.3980049 25.251312,7.178308 25.62099,6.9918857 27.125509,6.6321396 c 2.865294,-0.6851207 4.252435,-0.841918 7.491232,-0.8467825 3.154789,-0.00473 4.776659,0.1697344 7.254611,0.7804195 1.605069,0.3955655 3.688657,1.097299 3.844423,1.2947672 0.192816,0.2444386 -5.981942,20.7105272 -6.446974,21.3683352 -0.399551,0.565184 -10.222367,11.776371 -10.430962,11.90529 -0.07561,0.04673 -0.13748,0.04064 -0.13748,-0.01354 z"
         style="fill:#000000;fill-opacity:1;stroke:none;stroke-width:0.18782163;stroke-opacity:1"
         inkscape:connector-curvature="0" />
      <path
         id="path5528"
         d="m 92.921554,31.562604 c -1.945246,-0.408243 -3.423913,-1.510551 -4.169817,-3.108489 l -0.394533,-0.845197 0,-5.352917 0,-5.352916 0.374763,-0.799437 c 0.726436,-1.549624 1.939001,-2.517469 3.780791,-3.017754 1.658277,-0.450436 7.751112,-0.153409 8.248392,0.402111 0.11556,0.129093 0.0975,0.58942 -0.0686,1.750433 -0.12397,0.866405 -0.26979,1.61968 -0.32406,1.673951 -0.0543,0.05427 -0.782234,0.02403 -1.617695,-0.0672 -0.83546,-0.09123 -2.216306,-0.175989 -3.068547,-0.188353 -1.874193,-0.02719 -2.461346,0.185182 -2.902447,1.049812 -0.266975,0.523314 -0.280035,0.781471 -0.23949,4.734852 0.04173,4.06908 0.05134,4.193219 0.358013,4.623148 0.451405,0.632839 1.226744,0.896437 2.63674,0.896437 0.651936,0 1.346566,-0.0613 1.543619,-0.136217 l 0.358277,-0.136216 0.03827,-2.716325 0.03827,-2.716324 1.901694,0 1.901696,0 0,4.295806 0,4.295805 -0.54727,0.179293 c -1.833854,0.600793 -6.137999,0.894589 -7.848075,0.535699 z"
         style="fill:#000000;fill-opacity:1;stroke:none;stroke-width:0.18782163;stroke-opacity:1"
         inkscape:connector-curvature="0" />
      <path
         d="m 65.782814,27.439033 c 0.852543,-0.496446 0.880993,-0.663822 0.880993,-5.183032 0,-4.688584 -0.02314,-4.799166 -1.088712,-5.203423 -0.501628,-0.190309 -1.117018,-0.221716 -3.70074,-0.18888 l -3.099057,0.03939 0.915631,0.442216 c 0.503597,0.243218 1.153343,0.541086 1.443879,0.661927 l 0.528248,0.21971 0,4.6276 c 0,3.509973 0.04253,4.672067 0.176083,4.811718 0.28318,0.296102 3.348249,0.119501 3.943675,-0.227223 z m -8.260239,3.820885 c -0.04703,-0.122551 -0.08551,-4.203431 -0.08551,-9.068623 0,-7.642278 0.0284,-8.86937 0.208709,-9.019015 0.318728,-0.26452 8.474392,-0.112726 9.463673,0.176138 1.754705,0.512362 3.042183,1.574749 3.485647,2.876247 0.333682,0.979302 0.333682,11.08337 0,12.062672 -0.290478,0.852507 -1.319045,1.989192 -2.207275,2.439292 -1.270521,0.643821 -2.219785,0.751008 -6.674478,0.753664 -3.614975,0.0022 -4.11548,-0.02416 -4.19077,-0.220375 z"
         style="fill:#000000;fill-opacity:1;stroke:none;stroke-width:0.18782163;stroke-opacity:1"
         id="path5524"
         inkscape:connector-curvature="0" />
      <path
         id="path5522"
         d="m 77.527022,31.263684 c -0.04782,-0.124621 -0.08695,-1.340165 -0.08695,-2.701205 l 0,-2.474622 -2.760655,-6.321403 c -1.518359,-3.476772 -2.724756,-6.414954 -2.680879,-6.529298 0.107163,-0.279263 3.917003,-0.308531 4.140751,-0.03181 0.07831,0.09685 0.85527,1.937589 1.726588,4.090543 0.87132,2.152954 1.650806,3.892265 1.732194,3.865136 0.08139,-0.02713 0.863972,-1.81581 1.739077,-3.974846 0.875106,-2.159038 1.671597,-3.976616 1.769986,-4.039063 0.251748,-0.159784 4.018404,-0.146456 4.117923,0.01457 0.04501,0.07283 -1.171502,2.972914 -2.703364,6.44463 l -2.785201,6.312208 -0.07043,2.746891 -0.07043,2.746891 -1.990827,0.03898 c -1.722535,0.03373 -2.002545,0.0085 -2.077777,-0.187604 z"
         style="fill:#000000;fill-opacity:1;stroke:none;stroke-width:0.18782163;stroke-opacity:1"
         inkscape:connector-curvature="0" />
      <path
         id="path5520"
         d="m 104.59228,31.306654 c -0.10093,-0.272939 0.66796,-17.907121 0.78935,-18.103543 0.0762,-0.123305 0.63409,-0.173849 1.91888,-0.173849 0.99628,0 1.90249,0.03495 2.0138,0.07766 0.11303,0.04337 1.12853,2.531071 2.30012,5.634649 1.15376,3.056344 2.16577,5.556988 2.24892,5.556988 0.0831,0 1.06095,-2.42466 2.1729,-5.388133 1.11195,-2.963472 2.11574,-5.499064 2.23064,-5.634649 0.17972,-0.212061 0.47208,-0.246515 2.0918,-0.246515 1.82133,0 1.88701,0.01035 2.00902,0.316949 0.13489,0.338935 0.8763,17.845421 0.7635,18.027946 -0.0867,0.140316 -3.81623,0.142583 -3.90288,0.0024 -0.0361,-0.05842 -0.1047,-1.563924 -0.15243,-3.345573 -0.11853,-4.424144 -0.22673,-6.177901 -0.37217,-6.032453 -0.0671,0.06712 -0.55921,1.198448 -1.09352,2.51406 -0.5343,1.315611 -1.17607,2.883291 -1.42614,3.483734 l -0.45468,1.091713 -1.80086,0 c -1.27004,0 -1.84329,-0.0519 -1.94477,-0.176082 -0.0791,-0.09685 -0.76043,-1.681592 -1.51397,-3.521656 -0.75354,-1.840058 -1.41928,-3.345567 -1.47941,-3.345567 -0.12768,0 -0.23832,1.970476 -0.34706,6.181183 -0.0428,1.656431 -0.11188,3.066855 -0.15355,3.134274 -0.1262,0.204196 -3.82095,0.153476 -3.89749,-0.0535 z"
         style="fill:#000000;fill-opacity:1;stroke:none;stroke-width:0.18782163;stroke-opacity:1"
         inkscape:connector-curvature="0" />
      <path
         d="m 135.29914,24.263341 c 0.095,-0.120893 -0.13831,-1.182187 -0.74448,-3.386101 -1.05646,-3.841037 -1.02957,-3.762231 -1.18761,-3.480859 -0.25716,0.457827 -1.87033,6.605213 -1.78896,6.81726 0.073,0.190348 0.36097,0.225783 1.83464,0.225783 1.23067,0 1.78896,-0.05211 1.88641,-0.176083 z m -10.0463,7.029393 c -0.0801,-0.208619 5.23908,-17.803097 5.46815,-18.08739 0.22243,-0.276058 5.22461,-0.248766 5.45577,0.02976 0.22414,0.270067 5.64884,17.977164 5.5543,18.130127 -0.0399,0.06463 -0.99002,0.117502 -2.11128,0.117502 -1.81025,0 -2.04968,-0.02762 -2.13694,-0.246516 -0.0541,-0.135585 -0.28977,-0.912109 -0.52383,-1.725612 l -0.42556,-1.479097 -4.48205,-0.03721 c -2.46512,-0.02047 -4.44895,0.01634 -4.4085,0.08178 0.0405,0.06545 0.50432,0.297765 1.03082,0.516271 1.39472,0.578816 1.39978,0.586376 1.10412,1.648725 -0.13616,0.489219 -0.31189,0.968727 -0.39053,1.065572 -0.21267,0.261934 -4.03355,0.24907 -4.13447,-0.01392 z"
         style="fill:#000000;fill-opacity:1;stroke:none;stroke-width:0.18782163;stroke-opacity:1"
         id="path5516"
         inkscape:connector-curvature="0" />
      <path
         id="path4203"
         d="M 8.8037942,21.752356 C 7.8512117,20.789738 6.6395969,19.463328 6.1113148,18.804779 3.8984078,16.046199 1.4192281,11.842479 0.3071437,8.9631713 -0.06045516,8.0114172 -0.07427883,7.9116012 0.13984158,7.7550331 0.26821391,7.6611655 5.1779483,5.8777127 11.050364,3.791807 21.63454,0.03226221 21.737291,-7.4555832e-4 22.854411,5.7281958e-6 23.951066,7.5701472e-4 24.149757,0.06072095 30.249888,2.2324161 c 3.447701,1.2274106 6.331937,2.2965702 6.409413,2.3759116 0.09606,0.098374 -0.465179,0.1144473 -1.764439,0.050535 -3.17894,-0.1563746 -6.3642,0.1868469 -9.645725,1.0393599 C 23.609484,6.124191 8.7555259,11.542531 8.44439,11.828161 c -0.1482364,0.136084 0.055601,1.22409 1.0848577,5.79055 0.7773883,3.449007 1.2169603,5.673408 1.1369503,5.753418 -0.08001,0.08001 -0.8000565,-0.546232 -1.8624038,-1.619773 z"
         style="fill:#000000;fill-opacity:1;stroke:none;stroke-width:0.18782163;stroke-opacity:1"
         inkscape:connector-curvature="0" />
      <g
         transform="matrix(1.3701243,0,0,1.3701243,-52.043083,-5.4571973)"
         id="text5560"
         style="font-style:normal;font-weight:normal;font-size:2.39835382px;line-height:125%;font-family:sans-serif;letter-spacing:0px;word-spacing:0px;fill:#000000;fill-opacity:1;stroke:none;stroke-width:1px;stroke-linecap:butt;stroke-linejoin:miter;stroke-opacity:1">
        <g
           id="g5620">
          <path
             inkscape:connector-curvature="0"
             d="m 140.76041,14.391865 q 0.0761,0.02576 0.14756,0.11008 0.0726,0.08432 0.14521,0.231873 l 0.24007,0.477797 -0.25412,0 -0.22368,-0.448521 q -0.0867,-0.17566 -0.16863,-0.233043 -0.0808,-0.05738 -0.22134,-0.05738 l -0.25763,0 0,0.738946 -0.23656,0 0,-1.74841 0.53401,0 q 0.2998,0 0.44735,0.125305 0.14756,0.125305 0.14756,0.378256 0,0.165121 -0.0773,0.274031 -0.0761,0.108909 -0.2225,0.151068 z m -0.59256,-0.734262 0,0.620668 0.29745,0 q 0.17098,0 0.25764,-0.07846 0.0878,-0.07963 0.0878,-0.233043 0,-0.15341 -0.0878,-0.230701 -0.0867,-0.07846 -0.25764,-0.07846 l -0.29745,0 z"
             id="path5565"
             style="fill:#000000;fill-opacity:1" />
        </g>
      </g>
    </g>
  </g>
</svg>
